STARTFONT 2.1
COMMENT converted Oberon font (using FontToBDF by R.Crelier 10.1.91)
FONT Syntax12m.Scn.Fnt
SIZE 12 75 75
FONTBOUNDINGBOX  13 13 0 -3
STARTPROPERTIES 3
FONT_ASCENT 10
FONT_DESCENT 3
DEFAULT_CHAR 0
ENDPROPERTIES
CHARS 121
STARTCHAR c0
ENCODING -1 0
SWIDTH 0 0
DWIDTH 0 0
BBX 0 0 0 0
BITMAP
ENDCHAR
STARTCHAR c9
ENCODING -1 9
SWIDTH 387 0
DWIDTH 12 0
BBX 0 0 0 0
BITMAP
ENDCHAR
STARTCHAR c32
ENCODING -1 32
SWIDTH 96 0
DWIDTH 3 0
BBX 0 0 0 0
BITMAP
ENDCHAR
STARTCHAR c33
ENCODING -1 33
SWIDTH 161 0
DWIDTH 5 0
BBX 2 9 2 0
BITMAP
C0
C0
C0
C0
80
80
00
C0
C0
ENDCHAR
STARTCHAR c34
ENCODING -1 34
SWIDTH 161 0
DWIDTH 5 0
BBX 3 3 1 6
BITMAP
A0
A0
A0
ENDCHAR
STARTCHAR c35
ENCODING -1 35
SWIDTH 258 0
DWIDTH 8 0
BBX 6 9 1 0
BITMAP
48
48
48
FC
48
FC
48
48
48
ENDCHAR
STARTCHAR c36
ENCODING -1 36
SWIDTH 225 0
DWIDTH 7 0
BBX 5 11 1 -1
BITMAP
20
78
A0
A0
E0
70
38
28
28
F0
20
ENDCHAR
STARTCHAR c37
ENCODING -1 37
SWIDTH 354 0
DWIDTH 11 0
BBX 9 9 1 0
BITMAP
6200
9200
9400
9400
6B00
1480
1480
2480
2300
ENDCHAR
STARTCHAR c38
ENCODING -1 38
SWIDTH 322 0
DWIDTH 10 0
BBX 8 9 1 0
BITMAP
1C
34
34
18
39
4D
CD
CE
F7
ENDCHAR
STARTCHAR c39
ENCODING -1 39
SWIDTH 96 0
DWIDTH 3 0
BBX 1 3 1 6
BITMAP
80
80
80
ENDCHAR
STARTCHAR c40
ENCODING -1 40
SWIDTH 161 0
DWIDTH 5 0
BBX 3 13 1 -3
BITMAP
20
40
40
80
80
80
80
80
80
80
40
40
20
ENDCHAR
STARTCHAR c41
ENCODING -1 41
SWIDTH 161 0
DWIDTH 5 0
BBX 3 13 1 -3
BITMAP
80
40
40
20
20
20
20
20
20
20
40
40
80
ENDCHAR
STARTCHAR c42
ENCODING -1 42
SWIDTH 290 0
DWIDTH 9 0
BBX 7 7 1 0
BITMAP
44
28
10
FE
10
28
44
ENDCHAR
STARTCHAR c43
ENCODING -1 43
SWIDTH 290 0
DWIDTH 9 0
BBX 7 7 1 0
BITMAP
10
10
10
FE
10
10
10
ENDCHAR
STARTCHAR c44
ENCODING -1 44
SWIDTH 129 0
DWIDTH 4 0
BBX 2 4 1 -2
BITMAP
C0
C0
80
80
ENDCHAR
STARTCHAR c45
ENCODING -1 45
SWIDTH 290 0
DWIDTH 9 0
BBX 7 1 1 3
BITMAP
FE
ENDCHAR
STARTCHAR c46
ENCODING -1 46
SWIDTH 129 0
DWIDTH 4 0
BBX 2 2 1 0
BITMAP
C0
C0
ENDCHAR
STARTCHAR c47
ENCODING -1 47
SWIDTH 225 0
DWIDTH 7 0
BBX 5 11 1 -1
BITMAP
08
08
10
10
20
20
20
40
40
80
80
ENDCHAR
STARTCHAR c48
ENCODING -1 48
SWIDTH 225 0
DWIDTH 7 0
BBX 6 9 0 0
BITMAP
78
C4
C4
C4
C4
C4
C4
C4
78
ENDCHAR
STARTCHAR c49
ENCODING -1 49
SWIDTH 225 0
DWIDTH 7 0
BBX 4 9 0 0
BITMAP
30
70
B0
30
30
30
30
30
30
ENDCHAR
STARTCHAR c50
ENCODING -1 50
SWIDTH 225 0
DWIDTH 7 0
BBX 6 9 0 0
BITMAP
78
CC
0C
0C
18
30
60
C0
FC
ENDCHAR
STARTCHAR c51
ENCODING -1 51
SWIDTH 225 0
DWIDTH 7 0
BBX 6 9 0 0
BITMAP
78
CC
0C
0C
F8
0C
0C
CC
78
ENDCHAR
STARTCHAR c52
ENCODING -1 52
SWIDTH 225 0
DWIDTH 7 0
BBX 7 9 0 0
BITMAP
18
38
58
58
98
98
FE
18
18
ENDCHAR
STARTCHAR c53
ENCODING -1 53
SWIDTH 225 0
DWIDTH 7 0
BBX 6 9 0 0
BITMAP
7C
60
C0
F8
0C
0C
0C
18
F0
ENDCHAR
STARTCHAR c54
ENCODING -1 54
SWIDTH 225 0
DWIDTH 7 0
BBX 6 9 0 0
BITMAP
1C
60
C0
C0
F8
C4
C4
C4
78
ENDCHAR
STARTCHAR c55
ENCODING -1 55
SWIDTH 225 0
DWIDTH 7 0
BBX 6 9 0 0
BITMAP
FC
0C
18
18
30
30
60
60
60
ENDCHAR
STARTCHAR c56
ENCODING -1 56
SWIDTH 225 0
DWIDTH 7 0
BBX 6 9 0 0
BITMAP
78
C4
C4
E8
30
5C
8C
8C
78
ENDCHAR
STARTCHAR c57
ENCODING -1 57
SWIDTH 225 0
DWIDTH 7 0
BBX 6 9 0 0
BITMAP
78
8C
8C
8C
7C
0C
0C
18
E0
ENDCHAR
STARTCHAR c58
ENCODING -1 58
SWIDTH 129 0
DWIDTH 4 0
BBX 2 7 1 0
BITMAP
C0
C0
00
00
00
C0
C0
ENDCHAR
STARTCHAR c59
ENCODING -1 59
SWIDTH 129 0
DWIDTH 4 0
BBX 2 9 1 -2
BITMAP
C0
C0
00
00
00
C0
C0
80
80
ENDCHAR
STARTCHAR c60
ENCODING -1 60
SWIDTH 290 0
DWIDTH 9 0
BBX 8 7 0 0
BITMAP
03
0C
30
C0
30
0C
03
ENDCHAR
STARTCHAR c61
ENCODING -1 61
SWIDTH 290 0
DWIDTH 9 0
BBX 7 3 1 2
BITMAP
FE
00
FE
ENDCHAR
STARTCHAR c62
ENCODING -1 62
SWIDTH 290 0
DWIDTH 9 0
BBX 8 7 1 0
BITMAP
C0
30
0C
03
0C
30
C0
ENDCHAR
STARTCHAR c63
ENCODING -1 63
SWIDTH 193 0
DWIDTH 6 0
BBX 5 9 1 0
BITMAP
F0
18
18
30
60
60
00
60
60
ENDCHAR
STARTCHAR c64
ENCODING -1 64
SWIDTH 387 0
DWIDTH 12 0
BBX 10 11 1 -2
BITMAP
1F00
2080
4640
8E40
9640
9640
9640
9E80
9B00
4000
3800
ENDCHAR
STARTCHAR c65
ENCODING -1 65
SWIDTH 258 0
DWIDTH 8 0
BBX 8 9 0 0
BITMAP
18
18
3C
24
66
7E
42
C3
C3
ENDCHAR
STARTCHAR c66
ENCODING -1 66
SWIDTH 258 0
DWIDTH 8 0
BBX 6 9 1 0
BITMAP
F8
C4
C4
C4
F8
C4
C4
C4
F8
ENDCHAR
STARTCHAR c67
ENCODING -1 67
SWIDTH 225 0
DWIDTH 7 0
BBX 6 9 1 0
BITMAP
3C
60
C0
C0
C0
C0
C0
64
38
ENDCHAR
STARTCHAR c68
ENCODING -1 68
SWIDTH 290 0
DWIDTH 9 0
BBX 7 9 1 0
BITMAP
F8
C4
C2
C2
C2
C2
C2
C4
F8
ENDCHAR
STARTCHAR c69
ENCODING -1 69
SWIDTH 225 0
DWIDTH 7 0
BBX 5 9 1 0
BITMAP
F8
C0
C0
C0
F8
C0
C0
C0
F8
ENDCHAR
STARTCHAR c70
ENCODING -1 70
SWIDTH 193 0
DWIDTH 6 0
BBX 5 9 1 0
BITMAP
F8
C0
C0
C0
F8
C0
C0
C0
C0
ENDCHAR
STARTCHAR c71
ENCODING -1 71
SWIDTH 258 0
DWIDTH 8 0
BBX 6 9 1 0
BITMAP
3C
60
C0
C0
C4
C4
C4
64
3C
ENDCHAR
STARTCHAR c72
ENCODING -1 72
SWIDTH 258 0
DWIDTH 8 0
BBX 6 9 1 0
BITMAP
C4
C4
C4
C4
FC
C4
C4
C4
C4
ENDCHAR
STARTCHAR c73
ENCODING -1 73
SWIDTH 129 0
DWIDTH 4 0
BBX 2 9 1 0
BITMAP
C0
C0
C0
C0
C0
C0
C0
C0
C0
ENDCHAR
STARTCHAR c74
ENCODING -1 74
SWIDTH 161 0
DWIDTH 5 0
BBX 4 9 0 0
BITMAP
30
30
30
30
30
30
30
30
E0
ENDCHAR
STARTCHAR c75
ENCODING -1 75
SWIDTH 225 0
DWIDTH 7 0
BBX 6 9 1 0
BITMAP
C4
C4
C8
D0
E0
D0
D8
CC
CC
ENDCHAR
STARTCHAR c76
ENCODING -1 76
SWIDTH 193 0
DWIDTH 6 0
BBX 5 9 1 0
BITMAP
C0
C0
C0
C0
C0
C0
C0
C0
F8
ENDCHAR
STARTCHAR c77
ENCODING -1 77
SWIDTH 419 0
DWIDTH 13 0
BBX 13 9 0 0
BITMAP
38E0
38E0
28A0
6CB0
6DB0
4DB0
4518
C718
C718
ENDCHAR
STARTCHAR c78
ENCODING -1 78
SWIDTH 290 0
DWIDTH 9 0
BBX 7 9 1 0
BITMAP
C2
E2
E2
B2
BA
9A
8E
8E
86
ENDCHAR
STARTCHAR c79
ENCODING -1 79
SWIDTH 290 0
DWIDTH 9 0
BBX 7 9 1 0
BITMAP
38
64
C2
C2
C2
C2
C2
64
38
ENDCHAR
STARTCHAR c80
ENCODING -1 80
SWIDTH 225 0
DWIDTH 7 0
BBX 6 9 1 0
BITMAP
F8
C4
C4
C4
F8
C0
C0
C0
C0
ENDCHAR
STARTCHAR c81
ENCODING -1 81
SWIDTH 290 0
DWIDTH 9 0
BBX 7 11 1 -2
BITMAP
38
64
C2
C2
C2
C2
C2
64
38
08
06
ENDCHAR
STARTCHAR c82
ENCODING -1 82
SWIDTH 258 0
DWIDTH 8 0
BBX 6 9 1 0
BITMAP
F8
C4
C4
C4
F8
D0
C8
CC
C4
ENDCHAR
STARTCHAR c83
ENCODING -1 83
SWIDTH 193 0
DWIDTH 6 0
BBX 6 9 0 0
BITMAP
7C
C0
C0
E0
78
1C
0C
0C
F8
ENDCHAR
STARTCHAR c84
ENCODING -1 84
SWIDTH 193 0
DWIDTH 6 0
BBX 6 9 0 0
BITMAP
FC
30
30
30
30
30
30
30
30
ENDCHAR
STARTCHAR c85
ENCODING -1 85
SWIDTH 258 0
DWIDTH 8 0
BBX 6 9 1 0
BITMAP
C4
C4
C4
C4
C4
C4
C4
C4
78
ENDCHAR
STARTCHAR c86
ENCODING -1 86
SWIDTH 258 0
DWIDTH 8 0
BBX 8 9 0 0
BITMAP
C3
C3
C2
66
64
64
6C
38
38
ENDCHAR
STARTCHAR c87
ENCODING -1 87
SWIDTH 419 0
DWIDTH 13 0
BBX 13 9 0 0
BITMAP
C718
C718
C510
6590
6DB0
69B0
68A0
38E0
38E0
ENDCHAR
STARTCHAR c88
ENCODING -1 88
SWIDTH 193 0
DWIDTH 6 0
BBX 6 9 0 0
BITMAP
C4
CC
68
70
30
38
58
CC
8C
ENDCHAR
STARTCHAR c89
ENCODING -1 89
SWIDTH 193 0
DWIDTH 6 0
BBX 6 9 0 0
BITMAP
C4
C4
EC
68
68
30
30
30
30
ENDCHAR
STARTCHAR c90
ENCODING -1 90
SWIDTH 193 0
DWIDTH 6 0
BBX 6 9 0 0
BITMAP
FC
0C
18
18
30
60
60
C0
FC
ENDCHAR
STARTCHAR c91
ENCODING -1 91
SWIDTH 161 0
DWIDTH 5 0
BBX 3 13 1 -3
BITMAP
E0
80
80
80
80
80
80
80
80
80
80
80
E0
ENDCHAR
STARTCHAR c92
ENCODING -1 92
SWIDTH 225 0
DWIDTH 7 0
BBX 5 11 1 -1
BITMAP
80
80
40
40
20
20
20
10
10
08
08
ENDCHAR
STARTCHAR c93
ENCODING -1 93
SWIDTH 161 0
DWIDTH 5 0
BBX 3 13 1 -3
BITMAP
E0
20
20
20
20
20
20
20
20
20
20
20
E0
ENDCHAR
STARTCHAR c94
ENCODING -1 94
SWIDTH 290 0
DWIDTH 9 0
BBX 7 8 1 0
BITMAP
10
38
54
92
10
10
10
10
ENDCHAR
STARTCHAR c95
ENCODING -1 95
SWIDTH 129 0
DWIDTH 4 0
BBX 4 1 0 -1
BITMAP
F0
ENDCHAR
STARTCHAR c96
ENCODING -1 96
SWIDTH 225 0
DWIDTH 7 0
BBX 3 3 2 7
BITMAP
C0
40
20
ENDCHAR
STARTCHAR c97
ENCODING -1 97
SWIDTH 225 0
DWIDTH 7 0
BBX 6 7 1 0
BITMAP
78
98
18
78
98
98
EC
ENDCHAR
STARTCHAR c98
ENCODING -1 98
SWIDTH 225 0
DWIDTH 7 0
BBX 5 10 1 0
BITMAP
C0
C0
C0
D8
E8
C8
C8
C8
C8
F0
ENDCHAR
STARTCHAR c99
ENCODING -1 99
SWIDTH 193 0
DWIDTH 6 0
BBX 5 7 1 0
BITMAP
78
C0
C0
C0
C0
C8
70
ENDCHAR
STARTCHAR c100
ENCODING -1 100
SWIDTH 225 0
DWIDTH 7 0
BBX 5 10 1 0
BITMAP
18
18
18
78
98
98
98
98
B8
D8
ENDCHAR
STARTCHAR c101
ENCODING -1 101
SWIDTH 225 0
DWIDTH 7 0
BBX 5 7 1 0
BITMAP
70
C8
C8
F8
C0
C8
70
ENDCHAR
STARTCHAR c102
ENCODING -1 102
SWIDTH 129 0
DWIDTH 4 0
BBX 4 10 0 0
BITMAP
30
60
60
F0
60
60
60
60
60
60
ENDCHAR
STARTCHAR c103
ENCODING -1 103
SWIDTH 193 0
DWIDTH 6 0
BBX 5 10 1 -3
BITMAP
78
D0
D0
60
80
F0
78
88
88
70
ENDCHAR
STARTCHAR c104
ENCODING -1 104
SWIDTH 225 0
DWIDTH 7 0
BBX 5 10 1 0
BITMAP
C0
C0
C0
D8
E8
C8
C8
C8
C8
C8
ENDCHAR
STARTCHAR c105
ENCODING -1 105
SWIDTH 129 0
DWIDTH 4 0
BBX 2 10 1 0
BITMAP
C0
C0
00
C0
C0
C0
C0
C0
C0
C0
ENDCHAR
STARTCHAR c106
ENCODING -1 106
SWIDTH 129 0
DWIDTH 4 0
BBX 3 13 0 -3
BITMAP
60
60
00
60
60
60
60
60
60
60
60
60
C0
ENDCHAR
STARTCHAR c107
ENCODING -1 107
SWIDTH 225 0
DWIDTH 7 0
BBX 6 10 1 0
BITMAP
C0
C0
C0
CC
D8
D0
F0
D8
DC
CC
ENDCHAR
STARTCHAR c108
ENCODING -1 108
SWIDTH 129 0
DWIDTH 4 0
BBX 2 10 1 0
BITMAP
C0
C0
C0
C0
C0
C0
C0
C0
C0
C0
ENDCHAR
STARTCHAR c109
ENCODING -1 109
SWIDTH 322 0
DWIDTH 10 0
BBX 8 7 1 0
BITMAP
DB
ED
C9
C9
C9
C9
C9
ENDCHAR
STARTCHAR c110
ENCODING -1 110
SWIDTH 225 0
DWIDTH 7 0
BBX 5 7 1 0
BITMAP
D8
E8
C8
C8
C8
C8
C8
ENDCHAR
STARTCHAR c111
ENCODING -1 111
SWIDTH 225 0
DWIDTH 7 0
BBX 5 7 1 0
BITMAP
70
C8
C8
C8
C8
C8
70
ENDCHAR
STARTCHAR c112
ENCODING -1 112
SWIDTH 225 0
DWIDTH 7 0
BBX 5 10 1 -3
BITMAP
D8
E8
C8
C8
C8
C8
F0
C0
C0
C0
ENDCHAR
STARTCHAR c113
ENCODING -1 113
SWIDTH 225 0
DWIDTH 7 0
BBX 5 10 1 -3
BITMAP
78
98
98
98
98
B8
D8
18
18
18
ENDCHAR
STARTCHAR c114
ENCODING -1 114
SWIDTH 161 0
DWIDTH 5 0
BBX 4 7 1 0
BITMAP
D0
F0
C0
C0
C0
C0
C0
ENDCHAR
STARTCHAR c115
ENCODING -1 115
SWIDTH 161 0
DWIDTH 5 0
BBX 5 7 0 0
BITMAP
78
C0
E0
70
38
18
F0
ENDCHAR
STARTCHAR c116
ENCODING -1 116
SWIDTH 161 0
DWIDTH 5 0
BBX 5 9 0 0
BITMAP
60
60
F8
60
60
60
60
60
38
ENDCHAR
STARTCHAR c117
ENCODING -1 117
SWIDTH 225 0
DWIDTH 7 0
BBX 5 7 1 0
BITMAP
C8
C8
C8
C8
C8
D8
E8
ENDCHAR
STARTCHAR c118
ENCODING -1 118
SWIDTH 193 0
DWIDTH 6 0
BBX 6 7 0 0
BITMAP
CC
C8
C8
D8
50
70
70
ENDCHAR
STARTCHAR c119
ENCODING -1 119
SWIDTH 322 0
DWIDTH 10 0
BBX 10 7 0 0
BITMAP
CCC0
CC80
CC80
D580
5500
7700
7700
ENDCHAR
STARTCHAR c120
ENCODING -1 120
SWIDTH 225 0
DWIDTH 7 0
BBX 5 7 1 0
BITMAP
C8
D8
60
70
30
D8
98
ENDCHAR
STARTCHAR c121
ENCODING -1 121
SWIDTH 193 0
DWIDTH 6 0
BBX 6 10 0 -3
BITMAP
CC
C8
C8
D8
50
70
60
20
60
C0
ENDCHAR
STARTCHAR c122
ENCODING -1 122
SWIDTH 161 0
DWIDTH 5 0
BBX 5 7 0 0
BITMAP
F8
18
30
70
60
C0
F8
ENDCHAR
STARTCHAR c123
ENCODING -1 123
SWIDTH 193 0
DWIDTH 6 0
BBX 5 13 0 -3
BITMAP
18
20
20
20
20
20
C0
20
20
20
20
20
18
ENDCHAR
STARTCHAR c124
ENCODING -1 124
SWIDTH 161 0
DWIDTH 5 0
BBX 1 13 2 -3
BITMAP
80
80
80
80
80
80
80
80
80
80
80
80
80
ENDCHAR
STARTCHAR c125
ENCODING -1 125
SWIDTH 193 0
DWIDTH 6 0
BBX 5 13 1 -3
BITMAP
C0
20
20
20
20
20
18
20
20
20
20
20
C0
ENDCHAR
STARTCHAR c126
ENCODING -1 126
SWIDTH 322 0
DWIDTH 10 0
BBX 8 3 1 2
BITMAP
71
99
8E
ENDCHAR
STARTCHAR c128
ENCODING -1 128
SWIDTH 258 0
DWIDTH 8 0
BBX 8 10 0 0
BITMAP
42
5A
18
3C
24
66
7E
42
C3
C3
ENDCHAR
STARTCHAR c129
ENCODING -1 129
SWIDTH 290 0
DWIDTH 9 0
BBX 7 10 1 0
BITMAP
82
BA
64
C2
C2
C2
C2
C2
64
38
ENDCHAR
STARTCHAR c130
ENCODING -1 130
SWIDTH 258 0
DWIDTH 8 0
BBX 6 10 1 0
BITMAP
10
D4
C4
C4
C4
C4
C4
C4
C4
78
ENDCHAR
STARTCHAR c131
ENCODING -1 131
SWIDTH 225 0
DWIDTH 7 0
BBX 6 10 1 0
BITMAP
48
48
00
78
98
18
78
98
98
EC
ENDCHAR
STARTCHAR c132
ENCODING -1 132
SWIDTH 225 0
DWIDTH 7 0
BBX 5 10 1 0
BITMAP
48
48
00
70
C8
C8
C8
C8
C8
70
ENDCHAR
STARTCHAR c133
ENCODING -1 133
SWIDTH 225 0
DWIDTH 7 0
BBX 5 10 1 0
BITMAP
50
50
00
C8
C8
C8
C8
C8
D8
E8
ENDCHAR
STARTCHAR c134
ENCODING -1 134
SWIDTH 225 0
DWIDTH 7 0
BBX 6 10 1 0
BITMAP
30
48
00
78
98
18
78
98
98
EC
ENDCHAR
STARTCHAR c135
ENCODING -1 135
SWIDTH 225 0
DWIDTH 7 0
BBX 5 10 1 0
BITMAP
30
48
00
70
C8
C8
F8
C0
C8
70
ENDCHAR
STARTCHAR c136
ENCODING -1 136
SWIDTH 129 0
DWIDTH 4 0
BBX 4 10 0 0
BITMAP
60
90
00
60
60
60
60
60
60
60
ENDCHAR
STARTCHAR c137
ENCODING -1 137
SWIDTH 225 0
DWIDTH 7 0
BBX 5 10 1 0
BITMAP
30
48
00
70
C8
C8
C8
C8
C8
70
ENDCHAR
STARTCHAR c138
ENCODING -1 138
SWIDTH 225 0
DWIDTH 7 0
BBX 5 10 1 0
BITMAP
30
48
00
C8
C8
C8
C8
C8
D8
E8
ENDCHAR
STARTCHAR c139
ENCODING -1 139
SWIDTH 225 0
DWIDTH 7 0
BBX 6 10 1 0
BITMAP
60
20
10
78
98
18
78
98
98
EC
ENDCHAR
STARTCHAR c140
ENCODING -1 140
SWIDTH 225 0
DWIDTH 7 0
BBX 5 10 1 0
BITMAP
60
20
10
70
C8
C8
F8
C0
C8
70
ENDCHAR
STARTCHAR c141
ENCODING -1 141
SWIDTH 129 0
DWIDTH 4 0
BBX 3 10 1 0
BITMAP
80
C0
20
C0
C0
C0
C0
C0
C0
C0
ENDCHAR
STARTCHAR c142
ENCODING -1 142
SWIDTH 225 0
DWIDTH 7 0
BBX 5 10 1 0
BITMAP
80
C0
20
70
C8
C8
C8
C8
C8
70
ENDCHAR
STARTCHAR c143
ENCODING -1 143
SWIDTH 225 0
DWIDTH 7 0
BBX 5 10 1 0
BITMAP
40
60
10
C8
C8
C8
C8
C8
D8
E8
ENDCHAR
STARTCHAR c144
ENCODING -1 144
SWIDTH 225 0
DWIDTH 7 0
BBX 5 10 1 0
BITMAP
18
10
20
70
C8
C8
F8
C0
C8
70
ENDCHAR
STARTCHAR c145
ENCODING -1 145
SWIDTH 225 0
DWIDTH 7 0
BBX 5 10 1 0
BITMAP
48
48
00
70
C8
C8
F8
C0
C8
70
ENDCHAR
STARTCHAR c146
ENCODING -1 146
SWIDTH 129 0
DWIDTH 4 0
BBX 4 10 0 0
BITMAP
90
90
00
60
60
60
60
60
60
60
ENDCHAR
STARTCHAR c147
ENCODING -1 147
SWIDTH 193 0
DWIDTH 6 0
BBX 5 10 1 -3
BITMAP
78
C0
C0
C0
C0
C8
70
20
20
40
ENDCHAR
STARTCHAR c148
ENCODING -1 148
SWIDTH 225 0
DWIDTH 7 0
BBX 6 10 1 0
BITMAP
18
10
20
78
98
18
78
98
98
EC
ENDCHAR
STARTCHAR c149
ENCODING -1 149
SWIDTH 225 0
DWIDTH 7 0
BBX 5 10 1 0
BITMAP
68
B0
00
D8
E8
C8
C8
C8
C8
C8
ENDCHAR
STARTCHAR c155
ENCODING -1 155
SWIDTH 290 0
DWIDTH 9 0
BBX 9 1 0 3
BITMAP
FF80
ENDCHAR
STARTCHAR c159
ENCODING -1 159
SWIDTH 225 0
DWIDTH 7 0
BBX 0 0 0 0
BITMAP
ENDCHAR
ENDFONT
